# xmcd
#
# Track frame offsets:
# 150
# 15905
# 25730
# 34900
# 48820
# 62262
# 75060
# 85329
# 94017
# 109720
# 120082
# 134032
# 148777
# 162597
# 175280
# 187020
# 197640
# 212965
# 224677
# 237365
# 247847
# 254270
# 264877
# 272777
# 284192
# 296400
#
# Disc length: 4101 seconds
#
#
# Revision: 0
# Processed by: cddbd v1.5.2PL0 Copyright (c) Steve Scherf et al.
# Submitted via: FreeRIP 2.96 
#
DISCID=7410031a
DTITLE=Bobby Atkins - Gold Hill Gold
DYEAR=1900
DGENRE=Bluegrass
TTITLE0=The Old 50's
TTITLE1=At The Drive in Movies
TTITLE2=Darlin' How I Love You
TTITLE3=Sad Man
TTITLE4=Winds From The Mountain
TTITLE5=Forever And A Day
TTITLE6=Travelin' Light
TTITLE7=Don't Just Stand There
TTITLE8=Good Ole Days
TTITLE9=Mighty Dark To Travel
TTITLE10=Too Old To Die Young
TTITLE11=Tender Years
TTITLE12=Carolina Horn Pipe
TTITLE13=Love Is A Lot To Understand
TTITLE14=Soldiers Of The King
TTITLE15=Bad Moon Rising
TTITLE16=Blue Side Of Lonesome
TTITLE17=No Love To Call My Own
TTITLE18=Blueberry Hill
TTITLE19=A Dream Of You
TTITLE20=Long Train Ride
TTITLE21=Mr Bell
TTITLE22=I Might Take You Back Again
TTITLE23=Uncloudy Day
TTITLE24=Poor Man Blues
TTITLE25=My Love Goes Out To Mary
EXTD=
EXTT0=
EXTT1=
EXTT2=
EXTT3=
EXTT4=
EXTT5=
EXTT6=
EXTT7=
EXTT8=
EXTT9=
EXTT10=
EXTT11=
EXTT12=
EXTT13=
EXTT14=
EXTT15=
EXTT16=
EXTT17=
EXTT18=
EXTT19=
EXTT20=
EXTT21=
EXTT22=
EXTT23=
EXTT24=
EXTT25=
PLAYORDER=
